<?xml version="1.0" encoding="UTF-8"?>
<svg width="1200pt" height="1200pt" version="1.1" viewBox="0 0 1200 1200" xmlns="http://www.w3.org/2000/svg">
 <path d="m1131.6 430.8-362.4-362.4c-27.602-27.602-64.801-40.801-103.2-38.398-38.398 2.3984-73.199 22.801-96 52.801l-169.2 230.4c-18-16.801-45.602-16.801-63.602 1.1992l-81.602 81.602c-46.801 46.801-56.398 120-24 177.6l56.398 100.8c8.3984 15.602 4.8008 34.801-8.3984 45.602l-192 162c-34.801 28.801-55.199 72-57.602 117.6-2.3984 45.602 15.602 90 48 121.2 32.398 32.398 76.801 49.199 121.2 48 45.602-2.3984 87.602-22.801 117.6-57.602l162-192c10.801-13.199 31.199-16.801 45.602-8.3984l100.8 56.398c57.602 32.398 130.8 22.801 177.6-24l81.602-81.602c18-18 18-45.602 1.1992-63.602l230.4-169.2c31.199-22.801 50.398-57.602 52.801-96 3.5977-37.199-10.801-75.602-37.199-102zm-356.4 414-36 36c-18 18-46.801 21.602-68.398 9.6016l-100.8-56.398c-54-31.203-121.2-18.004-160.8 27.598l-162 192c-13.199 16.801-33.602 25.199-55.199 25.199-38.398 0-70.801-32.398-70.801-70.801 0-21.602 9.6016-40.801 25.199-54l192-162c46.801-39.602 58.801-106.8 28.801-160.8l-56.398-100.8c-12-22.801-8.3984-50.398 9.6016-68.398l36-36c7.1992-7.1992 20.398-7.1992 27.602 0l391.2 390c7.1992 8.3984 7.1992 20.398 0 28.801zm286.8-289.2-213.6 158.4c-15.602 12-37.199 9.6016-51.602-3.6016l-307.2-307.2c-14.398-14.398-15.602-36-3.6016-51.602l157.2-213.6c9.6016-13.199 22.801-15.602 30-16.801 7.1992 0 20.398 0 31.199 12 10.801 10.801 14.398 27.602 8.3984 43.199l-32.398 78c-7.1992 18 10.801 37.199 28.801 28.801l82.801-34.801c12-4.8008 25.199-2.3984 34.801 7.1992 9.6016 9.6016 12 22.801 7.1992 34.801l-34.801 81.605c-7.1992 18 10.801 36 28.801 28.801l82.801-34.801c12-4.8008 25.199-2.3984 34.801 7.1992 9.6016 9.6016 12 22.801 7.1992 34.801l-34.801 82.801c-7.1992 18 10.801 37.199 28.801 28.801l78-32.398c14.398-6 31.199-2.3984 43.199 8.3984 12 12 12 25.199 12 31.199-1.1992 7.1992-4.8008 19.199-18 28.801z" fill="#252f3c"/>
</svg>
