<svg xmlns="http://www.w3.org/2000/svg" viewBox="0 0 213.84 87.74"><defs><style>.cls-1{fill:#fff;}.cls-2{fill:#fc0;}</style></defs><title>powered-by-localsearch-white</title><g id="Layer_2" data-name="Layer 2"><g id="Layer_1-2" data-name="Layer 1"><path class="cls-1" d="M0,69.52V36.64H6V69.52Z"/><path class="cls-1" d="M82.14,69.52V36.64h6V69.52Z"/><path class="cls-1" d="M58.84,63.32a6.24,6.24,0,0,1,2-4.67,6.81,6.81,0,0,1,2.11-1.35,11.86,11.86,0,0,1,2.62-.72l5.5-.79a2.14,2.14,0,0,0,1.32-.56,1.55,1.55,0,0,0,.36-1,2.67,2.67,0,0,0-.92-2.05A4.06,4.06,0,0,0,69,51.28a4,4,0,0,0-4.29,3.62l-5.35-1.16a7.24,7.24,0,0,1,.83-2.63A7.89,7.89,0,0,1,62,48.76,9.18,9.18,0,0,1,65,47.07a11.19,11.19,0,0,1,4-.65,12.64,12.64,0,0,1,4.49.73,8.31,8.31,0,0,1,3,1.87,6.93,6.93,0,0,1,1.67,2.71A10.25,10.25,0,0,1,78.64,55l0,11c0,.6,0,1.25.08,1.93s.12,1.22.18,1.61l-5.54,0c-.06-.3-.11-.72-.16-1.25s-.06-1-.06-1.43a7.9,7.9,0,0,1-2.48,2.3,7.69,7.69,0,0,1-4.12,1,8.81,8.81,0,0,1-3.2-.58A7.84,7.84,0,0,1,60.87,68a6.43,6.43,0,0,1-1.51-2.14A6.3,6.3,0,0,1,58.84,63.32Zm8.94,2.27a6.59,6.59,0,0,0,1.84-.25,3.88,3.88,0,0,0,1.57-.85,4.31,4.31,0,0,0,1.1-1.59,6.45,6.45,0,0,0,.42-2.47v-1l-5,.75a4,4,0,0,0-2,.83,2.42,2.42,0,0,0-.8,2,2.52,2.52,0,0,0,.72,1.8A2.82,2.82,0,0,0,67.78,65.59Z"/><path class="cls-1" d="M31.85,53.46l0-.1a11,11,0,0,0-6.16-6.23,12.08,12.08,0,0,0-4.65-.9,12.18,12.18,0,0,0-4.66.86,11,11,0,0,0-6.2,6.18,13.29,13.29,0,0,0,0,9.51,11.46,11.46,0,0,0,2.44,3.76A10.92,10.92,0,0,0,16.26,69a12.17,12.17,0,0,0,4.66.91,12.33,12.33,0,0,0,4.65-.87,11,11,0,0,0,3.74-2.46,11.56,11.56,0,0,0,2.47-3.74.76.76,0,0,1,0-.11,16,16,0,0,1-.65-4.64A16.51,16.51,0,0,1,31.85,53.46Zm-5.7,7.41a6,6,0,0,1-1.25,2A5.11,5.11,0,0,1,23.07,64a5.83,5.83,0,0,1-2.13.4A5.62,5.62,0,0,1,18.81,64,5.1,5.1,0,0,1,17,62.81a6.13,6.13,0,0,1-1.24-2,8.4,8.4,0,0,1,0-5.54,6.12,6.12,0,0,1,1.26-2,5.16,5.16,0,0,1,1.82-1.2,5.88,5.88,0,0,1,2.14-.4,6,6,0,0,1,2.13.42,5.1,5.1,0,0,1,1.81,1.21,6,6,0,0,1,1.25,2,7.4,7.4,0,0,1,.46,2.78A7.24,7.24,0,0,1,26.15,60.87Z"/><path class="cls-1" d="M46.29,51.92a5.79,5.79,0,0,0-2.21.4,5.29,5.29,0,0,0-1.8,1.19,6,6,0,0,0-1.23,2,8,8,0,0,0,0,5.36,5.83,5.83,0,0,0,1.24,2,5.25,5.25,0,0,0,1.81,1.23,6.15,6.15,0,0,0,4.22.09,5.29,5.29,0,0,0,1.53-.88,4.63,4.63,0,0,0,1-1.23,5.86,5.86,0,0,0,.57-1.31l5.31,1.79a9.7,9.7,0,0,1-1.22,2.75,9.4,9.4,0,0,1-2.17,2.39,11,11,0,0,1-3.09,1.72,11.42,11.42,0,0,1-4,.64,12.22,12.22,0,0,1-4.61-.9,11.28,11.28,0,0,1-3.73-2.5,11.49,11.49,0,0,1-2.49-3.75,12.25,12.25,0,0,1-.89-4.75,12.55,12.55,0,0,1,.91-4.77,11.07,11.07,0,0,1,6.16-6.17,11.51,11.51,0,0,1,4.56-.87,11.73,11.73,0,0,1,4.07.68,11.13,11.13,0,0,1,3.1,1.71,9,9,0,0,1,2.13,2.42,10.51,10.51,0,0,1,1.17,2.77l-5.42,1.8a6.12,6.12,0,0,0-1.55-2.6A4.52,4.52,0,0,0,46.29,51.92Z"/><path class="cls-2" d="M88.25,87.74H0v-6H88.25Z"/><path class="cls-1" d="M96.24,69.34a9.63,9.63,0,0,1-2.7-1.69,7.6,7.6,0,0,1-1.73-2.16A6.77,6.77,0,0,1,91,63.18V63l2.91-1,0,.18a5.68,5.68,0,0,0,1.81,3.36A6.05,6.05,0,0,0,100,67a5.68,5.68,0,0,0,3.48-1,3.21,3.21,0,0,0,1.4-2.72,2.83,2.83,0,0,0-1-2.3,6.3,6.3,0,0,0-2.74-1.27l-3.65-.85a8.32,8.32,0,0,1-4.1-2.07,5.22,5.22,0,0,1-1.55-4,5.47,5.47,0,0,1,.65-2.59,7,7,0,0,1,1.7-2.09,8.11,8.11,0,0,1,2.47-1.41,8.58,8.58,0,0,1,3-.51,10.55,10.55,0,0,1,3.5.54,7.55,7.55,0,0,1,2.44,1.38,6.45,6.45,0,0,1,1.55,1.9,9.15,9.15,0,0,1,.79,2l0,.13-2.83,1,0-.18a5.14,5.14,0,0,0-.53-1.51,4.45,4.45,0,0,0-1-1.3,5.15,5.15,0,0,0-1.6-.93,6.75,6.75,0,0,0-2.27-.37,5.75,5.75,0,0,0-1.77.27,4.59,4.59,0,0,0-1.5.75,4,4,0,0,0-1,1.17A3,3,0,0,0,95,52.61c0,1.75,1.11,2.86,3.42,3.38l3.6.8A8.92,8.92,0,0,1,106.47,59a5.47,5.47,0,0,1,1.54,4,6,6,0,0,1-.54,2.47,6.59,6.59,0,0,1-1.57,2.14,8.66,8.66,0,0,1-2.52,1.71A10.73,10.73,0,0,1,96.24,69.34Z"/><path class="cls-1" d="M117.44,69.17a11.12,11.12,0,0,1-5.94-6.24,13.18,13.18,0,0,1-.87-5,12.87,12.87,0,0,1,.88-4.78,11.78,11.78,0,0,1,2.33-3.69,10.18,10.18,0,0,1,7.44-3.22,11.55,11.55,0,0,1,4.56.87,9.56,9.56,0,0,1,3.34,2.36A10.48,10.48,0,0,1,131.29,53a13.41,13.41,0,0,1,.72,4.53v.51a4.94,4.94,0,0,1-.06.63l-18.11,0v.16a9,9,0,0,0,.61,3.27,8,8,0,0,0,1.71,2.61,7.7,7.7,0,0,0,2.53,1.69,8.08,8.08,0,0,0,3.07.6,7.24,7.24,0,0,0,4.76-1.47A7.92,7.92,0,0,0,129,61.9l2.82,1a11,11,0,0,1-1.38,2.68,10.53,10.53,0,0,1-2.18,2.24,11.9,11.9,0,0,1-2.92,1.65A12.51,12.51,0,0,1,117.44,69.17Zm1-19.59a7,7,0,0,0-2.25,1.53,7.32,7.32,0,0,0-1.54,2.28,8.07,8.07,0,0,0-.64,2.48l0,.18,14.76.06v-.17a8.25,8.25,0,0,0-.53-2.49,6.82,6.82,0,0,0-1.43-2.28,6.37,6.37,0,0,0-2.29-1.52,7.46,7.46,0,0,0-3.12-.62A7.28,7.28,0,0,0,118.39,49.58Z"/><path class="cls-1" d="M210.61,69.54l.06-14.12a7.7,7.7,0,0,0-.34-2.38,4.85,4.85,0,0,0-1.07-1.91,5.13,5.13,0,0,0-1.84-1.29,6.69,6.69,0,0,0-2.68-.48,5.73,5.73,0,0,0-2.54.55,5.86,5.86,0,0,0-1.94,1.48A6.68,6.68,0,0,0,199,53.53a7.51,7.51,0,0,0-.46,2.54l-.05,13.43-3.17,0,.14-32.81h3.17l-.06,13.74.3-.52a5.42,5.42,0,0,1,2.21-2.11,8.59,8.59,0,0,1,4.55-1.21,9.17,9.17,0,0,1,3.62.67,7.08,7.08,0,0,1,4.08,4.48,10.3,10.3,0,0,1,.49,3.26l-.06,14.59Z"/><path class="cls-1" d="M177,69.22a10.67,10.67,0,0,1-3.55-2.53A11.18,11.18,0,0,1,171.14,63a12.9,12.9,0,0,1-.82-4.72,13.28,13.28,0,0,1,.86-4.75,11.11,11.11,0,0,1,2.37-3.74,10.8,10.8,0,0,1,3.6-2.43,12.17,12.17,0,0,1,8.18-.27,9.47,9.47,0,0,1,6.1,6.51l-2.83,1.09a9,9,0,0,0-.81-1.92A7,7,0,0,0,186.43,51a6.52,6.52,0,0,0-2-1.25,7.66,7.66,0,0,0-2.78-.49,8.32,8.32,0,0,0-3.14.6,7.47,7.47,0,0,0-2.56,1.76,8.66,8.66,0,0,0-1.76,2.83A11.34,11.34,0,0,0,174.1,62a8.15,8.15,0,0,0,1.74,2.83,7.76,7.76,0,0,0,5.7,2.35,7.46,7.46,0,0,0,2.81-.44,7.76,7.76,0,0,0,2.12-1.25,7.25,7.25,0,0,0,1.45-1.68,8.39,8.39,0,0,0,.84-1.82l2.82,1.13a11.27,11.27,0,0,1-1.26,2.56,9.33,9.33,0,0,1-2.11,2.24,10.78,10.78,0,0,1-2.94,1.63A11.88,11.88,0,0,1,177,69.22Z"/><path class="cls-1" d="M139.23,69.45a7.51,7.51,0,0,1-2.34-1.55,6.25,6.25,0,0,1-1.45-2.07,6.3,6.3,0,0,1,1.39-7,9.54,9.54,0,0,1,5-2.11l6-.85a3,3,0,0,0,1.82-.73,1.89,1.89,0,0,0,.43-1.24,4.61,4.61,0,0,0-1.39-3.51,5.8,5.8,0,0,0-4.13-1.36,6.64,6.64,0,0,0-4.28,1.31,5.35,5.35,0,0,0-1.93,3.67l0,.16-3-.63,0-.14a7.64,7.64,0,0,1,1-2.92,8,8,0,0,1,2-2.23,9.06,9.06,0,0,1,2.79-1.42,10.81,10.81,0,0,1,3.37-.51,11.5,11.5,0,0,1,3.92.63,7.37,7.37,0,0,1,2.73,1.69,6.8,6.8,0,0,1,1.59,2.51,8.83,8.83,0,0,1,.52,3l0,10.93a29,29,0,0,0,.47,4.34h-3.08a30.58,30.58,0,0,1-.44-3.42l0-.27-.27.47c-.19.24-.37.5-.55.7a8.72,8.72,0,0,1-1.74,1.44,11.44,11.44,0,0,1-2.3,1.18A10.91,10.91,0,0,1,139.23,69.45ZM149.87,58a5.22,5.22,0,0,1-1.21.31l-6.31.9a5.54,5.54,0,0,0-3.07,1.29,3.53,3.53,0,0,0-1.13,2.76,3.64,3.64,0,0,0,1.18,2.65,4.67,4.67,0,0,0,3.48,1.2,8.44,8.44,0,0,0,2.94-.47,7.16,7.16,0,0,0,2.32-1.4,6.09,6.09,0,0,0,1.51-2.2,7.66,7.66,0,0,0,.55-2.94V57.91Z"/><path class="cls-1" d="M158.06,69.5l.1-23.11h3.17v3.68l.3-.39a7.52,7.52,0,0,1,6.62-3.37,5.46,5.46,0,0,1,1.88.25l.11,0v3s-4.52-1.33-7,1.12a7.24,7.24,0,0,0-1.91,5.44l-.05,13.32Z"/><path class="cls-1" d="M2.93,10.85V18.1H.48V.38H6.93A6.2,6.2,0,0,1,9.17.77,5,5,0,0,1,12,3.55a5.23,5.23,0,0,1,.4,2.07A5.3,5.3,0,0,1,12,7.71a4.71,4.71,0,0,1-1.11,1.65,5.21,5.21,0,0,1-1.72,1.09,6,6,0,0,1-2.24.4Zm3.55-2.2A3.64,3.64,0,0,0,9,7.84,2.77,2.77,0,0,0,9.9,5.65,2.87,2.87,0,0,0,9,3.4a3.6,3.6,0,0,0-2.51-.83H2.93V8.65Z"/><path class="cls-1" d="M19.3,5.7a6.1,6.1,0,0,1,2.48.49,6,6,0,0,1,1.95,1.33,5.93,5.93,0,0,1,1.27,2,6.94,6.94,0,0,1,.45,2.53A7,7,0,0,1,25,14.62a5.88,5.88,0,0,1-1.27,2A6.06,6.06,0,0,1,21.78,18a6.62,6.62,0,0,1-5,0,6.06,6.06,0,0,1-1.95-1.34,5.9,5.9,0,0,1-1.28-2,7,7,0,0,1-.45-2.55,6.94,6.94,0,0,1,.45-2.53,6,6,0,0,1,1.28-2A6.1,6.1,0,0,1,19.3,5.7Zm0,10.68a3.83,3.83,0,0,0,1.43-.28,3.37,3.37,0,0,0,1.2-.83,3.79,3.79,0,0,0,.82-1.35,5.24,5.24,0,0,0,.3-1.85,5.12,5.12,0,0,0-.3-1.83,3.93,3.93,0,0,0-.82-1.34,3.5,3.5,0,0,0-1.2-.83A3.83,3.83,0,0,0,19.3,7.8a3.78,3.78,0,0,0-1.42.27,3.5,3.5,0,0,0-1.2.83,4,4,0,0,0-.83,1.34,5.12,5.12,0,0,0-.3,1.83,5.24,5.24,0,0,0,.3,1.85,3.81,3.81,0,0,0,.83,1.35,3.37,3.37,0,0,0,1.2.83A3.78,3.78,0,0,0,19.3,16.38Z"/><path class="cls-1" d="M37.65,6.07l3.13,9,2.65-9H45.9L42,18.1H39.58L36.38,9,33.25,18.1H30.78l-4-12H29.4l2.7,9,3.13-9Z"/><path class="cls-1" d="M58.75,14.67A5.16,5.16,0,0,1,58,16.16a5.37,5.37,0,0,1-1.18,1.2,5.77,5.77,0,0,1-1.56.81,5.66,5.66,0,0,1-1.93.3,6.42,6.42,0,0,1-2.3-.42,5.49,5.49,0,0,1-1.93-1.25,6,6,0,0,1-1.33-2,7.25,7.25,0,0,1-.49-2.72,6.75,6.75,0,0,1,.48-2.59,6.67,6.67,0,0,1,1.26-2,5.65,5.65,0,0,1,1.84-1.3,5.29,5.29,0,0,1,2.17-.46,6.25,6.25,0,0,1,2.47.46,5,5,0,0,1,1.81,1.29,5.74,5.74,0,0,1,1.11,2A8,8,0,0,1,58.83,12c0,.15,0,.29,0,.42a2.11,2.11,0,0,1,0,.33H49.73a4.37,4.37,0,0,0,.3,1.47,3.34,3.34,0,0,0,1.91,1.92,3.88,3.88,0,0,0,1.41.26,3.21,3.21,0,0,0,2.25-.7A4,4,0,0,0,56.73,14Zm-2.37-3.82a3.27,3.27,0,0,0-.88-2.19,3.14,3.14,0,0,0-2.42-.89A3.18,3.18,0,0,0,51.74,8a3.11,3.11,0,0,0-1,.7,3.84,3.84,0,0,0-.66,1,3.08,3.08,0,0,0-.28,1.13Z"/><path class="cls-1" d="M68.5,8.45a7.19,7.19,0,0,0-1-.07,3.32,3.32,0,0,0-2.39.86,3.74,3.74,0,0,0-.91,2.83v6H61.83v-12h2.3v2.1A4.06,4.06,0,0,1,64.89,7a4.11,4.11,0,0,1,.91-.7,3.45,3.45,0,0,1,1-.37,5.34,5.34,0,0,1,1-.09,3.32,3.32,0,0,1,.46,0,2.49,2.49,0,0,1,.31,0Z"/><path class="cls-1" d="M81.48,14.67a5.19,5.19,0,0,1-.74,1.49,5.33,5.33,0,0,1-1.17,1.2,5.69,5.69,0,0,1-1.57.81,5.61,5.61,0,0,1-1.92.3,6.38,6.38,0,0,1-2.3-.42,5.62,5.62,0,0,1-1.94-1.25,5.85,5.85,0,0,1-1.32-2A7.05,7.05,0,0,1,70,12.05a6.94,6.94,0,0,1,.47-2.59,6.51,6.51,0,0,1,1.27-2,5.51,5.51,0,0,1,1.83-1.3,5.33,5.33,0,0,1,2.18-.46,6.17,6.17,0,0,1,2.46.46,4.9,4.9,0,0,1,1.81,1.29,5.6,5.6,0,0,1,1.12,2A8.29,8.29,0,0,1,81.55,12c0,.15,0,.29,0,.42a2.11,2.11,0,0,1,0,.33h-9a4.37,4.37,0,0,0,.3,1.47,3.61,3.61,0,0,0,.77,1.17,3.37,3.37,0,0,0,1.15.75,3.88,3.88,0,0,0,1.41.26,3.24,3.24,0,0,0,2.25-.7A4,4,0,0,0,79.45,14ZM79.1,10.85a3.26,3.26,0,0,0-.87-2.19,3.16,3.16,0,0,0-2.43-.89A3.13,3.13,0,0,0,74.47,8a2.9,2.9,0,0,0-1,.7,3.63,3.63,0,0,0-.67,1,3.27,3.27,0,0,0-.27,1.13Z"/><path class="cls-1" d="M93,16.27a3.91,3.91,0,0,1-1.36,1.52,4.18,4.18,0,0,1-2.37.63,5.64,5.64,0,0,1-2.37-.48,5.33,5.33,0,0,1-1.79-1.35,6.29,6.29,0,0,1-1.14-2,7.81,7.81,0,0,1-.4-2.51A6.9,6.9,0,0,1,84,9.64a6.11,6.11,0,0,1,1.16-2,5.55,5.55,0,0,1,1.8-1.38,5.23,5.23,0,0,1,2.32-.51,5.47,5.47,0,0,1,1.42.17,4.3,4.3,0,0,1,1.06.47,3.2,3.2,0,0,1,.75.65,2.73,2.73,0,0,1,.45.73V0h2.32V15.88c0,.58,0,1.07,0,1.47s.06.65.08.75H93.1a4.51,4.51,0,0,1-.08-.64,9.83,9.83,0,0,1,0-1Zm-7-4.22a5.79,5.79,0,0,0,.24,1.71,4.05,4.05,0,0,0,.69,1.36A3.08,3.08,0,0,0,88,16a3.25,3.25,0,0,0,1.5.33A3,3,0,0,0,90.93,16,3.33,3.33,0,0,0,92,15.1a4.06,4.06,0,0,0,.69-1.38A6.27,6.27,0,0,0,93,12,4.73,4.73,0,0,0,92,9,3.07,3.07,0,0,0,89.5,7.82,3.36,3.36,0,0,0,88,8.14,3.2,3.2,0,0,0,86.92,9a4.1,4.1,0,0,0-.72,1.34A5.72,5.72,0,0,0,86,12.05Z"/><path class="cls-1" d="M105.5,18.1V0h2.33V7.77a3.8,3.8,0,0,1,1.45-1.42,4.71,4.71,0,0,1,2.52-.63,5.58,5.58,0,0,1,2.4.49,5,5,0,0,1,1.73,1.35,6.21,6.21,0,0,1,1,2,8.53,8.53,0,0,1,.35,2.45,8.21,8.21,0,0,1-.38,2.52,6.12,6.12,0,0,1-1.08,2,5.08,5.08,0,0,1-1.75,1.36,5.38,5.38,0,0,1-2.39.5,4.82,4.82,0,0,1-2.34-.54,4.09,4.09,0,0,1-1.56-1.53V18.1ZM114.93,12a4.67,4.67,0,0,0-1-3.08,3.21,3.21,0,0,0-2.6-1.14,3.44,3.44,0,0,0-1.44.3,3.38,3.38,0,0,0-1.14.84,3.83,3.83,0,0,0-.73,1.32A5.46,5.46,0,0,0,107.8,12a5.54,5.54,0,0,0,.27,1.78,4,4,0,0,0,.73,1.36,3.19,3.19,0,0,0,1.14.86,3.44,3.44,0,0,0,1.44.3A3.2,3.2,0,0,0,114,15.15,4.8,4.8,0,0,0,114.93,12Z"/><path class="cls-1" d="M120.25,23.12l3-6.35-5.17-10.7h2.7l3.75,8.31,3.6-8.31h2.52l-7.82,17.05Z"/></g></g></svg>