<svg xmlns="http://www.w3.org/2000/svg" viewBox="0 0 47.43 47.42"><defs><style>.cls-1{fill:#fff;}</style></defs><title>white-round-gmb</title><g id="Layer_2" data-name="Layer 2"><g id="Capa_1" data-name="Capa 1"><g id="_Group_" data-name="&lt;Group&gt;"><path class="cls-1" d="M31.59,20.45a3.94,3.94,0,1,1-7.87,0,3.94,3.94,0,1,1-7.88,0,3.93,3.93,0,0,1-2.73,3.73V34.63H34.32V24.18A3.9,3.9,0,0,1,31.59,20.45ZM28.8,32.72a3.35,3.35,0,1,1,0-6.7,3.3,3.3,0,0,1,2.25.86l-1,1a1.79,1.79,0,0,0-1.28-.51,2,2,0,0,0,0,4.05,1.69,1.69,0,0,0,1.8-1.34H28.8V28.76H32a3.74,3.74,0,0,1,.06.68A3.09,3.09,0,0,1,28.8,32.72Zm2.79-12.27a3.94,3.94,0,1,1-7.87,0,3.94,3.94,0,1,1-7.88,0,3.93,3.93,0,0,1-2.73,3.73V34.63H34.32V24.18A3.9,3.9,0,0,1,31.59,20.45ZM28.8,32.72a3.35,3.35,0,1,1,0-6.7,3.3,3.3,0,0,1,2.25.86l-1,1a1.79,1.79,0,0,0-1.28-.51,2,2,0,0,0,0,4.05,1.69,1.69,0,0,0,1.8-1.34H28.8V28.76H32a3.74,3.74,0,0,1,.06.68A3.09,3.09,0,0,1,28.8,32.72Zm2.79-12.27a3.94,3.94,0,1,1-7.87,0,3.94,3.94,0,1,1-7.88,0,3.93,3.93,0,0,1-2.73,3.73V34.63H34.32V24.18A3.9,3.9,0,0,1,31.59,20.45ZM28.8,32.72a3.35,3.35,0,1,1,0-6.7,3.3,3.3,0,0,1,2.25.86l-1,1a1.79,1.79,0,0,0-1.28-.51,2,2,0,0,0,0,4.05,1.69,1.69,0,0,0,1.8-1.34H28.8V28.76H32a3.74,3.74,0,0,1,.06.68A3.09,3.09,0,0,1,28.8,32.72Zm2.79-12.27a3.94,3.94,0,1,1-7.87,0,3.94,3.94,0,1,1-7.88,0,3.93,3.93,0,0,1-2.73,3.73V34.63H34.32V24.18A3.9,3.9,0,0,1,31.59,20.45ZM28.8,32.72a3.35,3.35,0,1,1,0-6.7,3.3,3.3,0,0,1,2.25.86l-1,1a1.79,1.79,0,0,0-1.28-.51,2,2,0,0,0,0,4.05,1.69,1.69,0,0,0,1.8-1.34H28.8V28.76H32a3.74,3.74,0,0,1,.06.68A3.09,3.09,0,0,1,28.8,32.72Zm2.79-12.27a3.94,3.94,0,1,1-7.87,0,3.94,3.94,0,1,1-7.88,0,3.93,3.93,0,0,1-2.73,3.73V34.63H34.32V24.18A3.9,3.9,0,0,1,31.59,20.45ZM28.8,32.72a3.35,3.35,0,1,1,0-6.7,3.3,3.3,0,0,1,2.25.86l-1,1a1.79,1.79,0,0,0-1.28-.51,2,2,0,0,0,0,4.05,1.69,1.69,0,0,0,1.8-1.34H28.8V28.76H32a3.74,3.74,0,0,1,.06.68A3.09,3.09,0,0,1,28.8,32.72Zm2.79-12.27a3.94,3.94,0,1,1-7.87,0,3.94,3.94,0,1,1-7.88,0,3.93,3.93,0,0,1-2.73,3.73V34.63H34.32V24.18A3.9,3.9,0,0,1,31.59,20.45ZM28.8,32.72a3.35,3.35,0,1,1,0-6.7,3.3,3.3,0,0,1,2.25.86l-1,1a1.79,1.79,0,0,0-1.28-.51,2,2,0,0,0,0,4.05,1.69,1.69,0,0,0,1.8-1.34H28.8V28.76H32a3.74,3.74,0,0,1,.06.68A3.09,3.09,0,0,1,28.8,32.72ZM40.48,6.94a23.71,23.71,0,1,0,7,16.77A23.64,23.64,0,0,0,40.48,6.94Zm-3.16,17V35.48a2.16,2.16,0,0,1-2.15,2.15H12.26a2.16,2.16,0,0,1-2.15-2.15V23.94A3.91,3.91,0,0,1,8,20.45L10.2,12c0-.07.05-.12.07-.18l0,0a2.12,2.12,0,0,1,.75-.9l.08-.06.25-.13.11-.05c.09,0,.18-.06.27-.09l.11,0a1.75,1.75,0,0,1,.4,0H35.17a1.75,1.75,0,0,1,.4,0l.11,0,.27.09.11.05.25.13.08.06a2.12,2.12,0,0,1,.75.9l0,0c0,.06.05.11.07.18l2.24,8.5A3.92,3.92,0,0,1,37.32,23.94Zm-5.73-3.49a3.94,3.94,0,1,1-7.87,0,3.94,3.94,0,1,1-7.88,0,3.93,3.93,0,0,1-2.73,3.73V34.63H34.32V24.18A3.9,3.9,0,0,1,31.59,20.45ZM28.8,32.72a3.35,3.35,0,1,1,0-6.7,3.3,3.3,0,0,1,2.25.86l-1,1a1.79,1.79,0,0,0-1.28-.51,2,2,0,0,0,0,4.05,1.69,1.69,0,0,0,1.8-1.34H28.8V28.76H32a3.74,3.74,0,0,1,.06.68A3.09,3.09,0,0,1,28.8,32.72Zm2.79-12.27a3.94,3.94,0,1,1-7.87,0,3.94,3.94,0,1,1-7.88,0,3.93,3.93,0,0,1-2.73,3.73V34.63H34.32V24.18A3.9,3.9,0,0,1,31.59,20.45ZM28.8,32.72a3.35,3.35,0,1,1,0-6.7,3.3,3.3,0,0,1,2.25.86l-1,1a1.79,1.79,0,0,0-1.28-.51,2,2,0,0,0,0,4.05,1.69,1.69,0,0,0,1.8-1.34H28.8V28.76H32a3.74,3.74,0,0,1,.06.68A3.09,3.09,0,0,1,28.8,32.72Zm2.79-12.27a3.94,3.94,0,1,1-7.87,0,3.94,3.94,0,1,1-7.88,0,3.93,3.93,0,0,1-2.73,3.73V34.63H34.32V24.18A3.9,3.9,0,0,1,31.59,20.45ZM28.8,32.72a3.35,3.35,0,1,1,0-6.7,3.3,3.3,0,0,1,2.25.86l-1,1a1.79,1.79,0,0,0-1.28-.51,2,2,0,0,0,0,4.05,1.69,1.69,0,0,0,1.8-1.34H28.8V28.76H32a3.74,3.74,0,0,1,.06.68A3.09,3.09,0,0,1,28.8,32.72Zm2.79-12.27a3.94,3.94,0,1,1-7.87,0,3.94,3.94,0,1,1-7.88,0,3.93,3.93,0,0,1-2.73,3.73V34.63H34.32V24.18A3.9,3.9,0,0,1,31.59,20.45ZM28.8,32.72a3.35,3.35,0,1,1,0-6.7,3.3,3.3,0,0,1,2.25.86l-1,1a1.79,1.79,0,0,0-1.28-.51,2,2,0,0,0,0,4.05,1.69,1.69,0,0,0,1.8-1.34H28.8V28.76H32a3.74,3.74,0,0,1,.06.68A3.09,3.09,0,0,1,28.8,32.72Zm2.79-12.27a3.94,3.94,0,1,1-7.87,0,3.94,3.94,0,1,1-7.88,0,3.93,3.93,0,0,1-2.73,3.73V34.63H34.32V24.18A3.9,3.9,0,0,1,31.59,20.45ZM28.8,32.72a3.35,3.35,0,1,1,0-6.7,3.3,3.3,0,0,1,2.25.86l-1,1a1.79,1.79,0,0,0-1.28-.51,2,2,0,0,0,0,4.05,1.69,1.69,0,0,0,1.8-1.34H28.8V28.76H32a3.74,3.74,0,0,1,.06.68A3.09,3.09,0,0,1,28.8,32.72Z"/></g></g></g></svg>