<svg xmlns="http://www.w3.org/2000/svg" viewBox="0 0 47.43 47.43"><defs><style>.cls-1{fill:#fff;}</style></defs><title>white-round-localsearch</title><g id="Layer_2" data-name="Layer 2"><g id="Capa_1" data-name="Capa 1"><path class="cls-1" d="M31.1,23.09a1.11,1.11,0,0,0-.62.26.85.85,0,0,0,0,1.19.89.89,0,0,0,.67.24,2.25,2.25,0,0,0,.58-.07,1.31,1.31,0,0,0,.49-.27,1.46,1.46,0,0,0,.35-.5,2.06,2.06,0,0,0,.13-.78v-.31Zm0,0a1.11,1.11,0,0,0-.62.26.85.85,0,0,0,0,1.19.89.89,0,0,0,.67.24,2.25,2.25,0,0,0,.58-.07,1.31,1.31,0,0,0,.49-.27,1.46,1.46,0,0,0,.35-.5,2.06,2.06,0,0,0,.13-.78v-.31Zm-13-1.51A1.71,1.71,0,0,0,17.7,21a1.51,1.51,0,0,0-.56-.38,1.74,1.74,0,0,0-.67-.13,1.69,1.69,0,0,0-.67.11,1.56,1.56,0,0,0-.57.37,2.1,2.1,0,0,0-.4.63,2.57,2.57,0,0,0-.15.87,2.38,2.38,0,0,0,.15.87,1.91,1.91,0,0,0,.39.62,1.6,1.6,0,0,0,.56.4,1.82,1.82,0,0,0,1.34,0,1.54,1.54,0,0,0,.57-.38,1.91,1.91,0,0,0,.39-.62,2.35,2.35,0,0,0,.16-.87A2.11,2.11,0,0,0,18.09,21.58Zm13,1.51a1.11,1.11,0,0,0-.62.26.85.85,0,0,0,0,1.19.89.89,0,0,0,.67.24,2.25,2.25,0,0,0,.58-.07,1.31,1.31,0,0,0,.49-.27,1.46,1.46,0,0,0,.35-.5,2.06,2.06,0,0,0,.13-.78v-.31Zm-13-1.51A1.71,1.71,0,0,0,17.7,21a1.51,1.51,0,0,0-.56-.38,1.74,1.74,0,0,0-.67-.13,1.69,1.69,0,0,0-.67.11,1.56,1.56,0,0,0-.57.37,2.1,2.1,0,0,0-.4.63,2.57,2.57,0,0,0-.15.87,2.38,2.38,0,0,0,.15.87,1.91,1.91,0,0,0,.39.62,1.6,1.6,0,0,0,.56.4,1.82,1.82,0,0,0,1.34,0,1.54,1.54,0,0,0,.57-.38,1.91,1.91,0,0,0,.39-.62,2.35,2.35,0,0,0,.16-.87A2.11,2.11,0,0,0,18.09,21.58Zm13,1.51a1.11,1.11,0,0,0-.62.26.85.85,0,0,0,0,1.19.89.89,0,0,0,.67.24,2.25,2.25,0,0,0,.58-.07,1.31,1.31,0,0,0,.49-.27,1.46,1.46,0,0,0,.35-.5,2.06,2.06,0,0,0,.13-.78v-.31ZM23.71,0h0A23.72,23.72,0,0,0,0,23.71H0A23.72,23.72,0,0,0,23.72,47.43h0A23.72,23.72,0,0,0,47.43,23.72h0A23.72,23.72,0,0,0,23.71,0ZM35.62,15.71H37.5V26H35.62Zm-3.23,4.87a1.36,1.36,0,0,0-1.91.13,1.34,1.34,0,0,0-.32.73l-1.68-.37a2.23,2.23,0,0,1,.26-.83,2.57,2.57,0,0,1,.57-.74,2.89,2.89,0,0,1,.94-.52,3.61,3.61,0,0,1,1.26-.2,4.18,4.18,0,0,1,1.4.22,2.72,2.72,0,0,1,.94.59,2.2,2.2,0,0,1,.52.85,3.44,3.44,0,0,1,.16,1v3.44c0,.19,0,.4,0,.61s0,.38.06.51H32.87c0-.1,0-.23,0-.39s0-.32,0-.45a2.41,2.41,0,0,1-.77.72,2.44,2.44,0,0,1-1.29.31A2.56,2.56,0,0,1,29,25.55a2,2,0,0,1-.62-1.46l0,0a2.16,2.16,0,0,1,.17-.83,2,2,0,0,1,.45-.63,2.31,2.31,0,0,1,.66-.42,3.93,3.93,0,0,1,.83-.23l1.72-.25a.58.58,0,0,0,.41-.17.41.41,0,0,0,.11-.31A.83.83,0,0,0,32.39,20.58ZM21,21a3.41,3.41,0,0,1,.77-1.17A3.51,3.51,0,0,1,22.93,19a3.92,3.92,0,0,1,2.7-.06,3.52,3.52,0,0,1,1,.53,2.82,2.82,0,0,1,.67.75,3.64,3.64,0,0,1,.36.87l-1.69.57a2.05,2.05,0,0,0-.49-.81,1.44,1.44,0,0,0-1.06-.38,2,2,0,0,0-.69.12,1.68,1.68,0,0,0-.56.38,1.86,1.86,0,0,0-.39.63,2.55,2.55,0,0,0,0,1.68,1.76,1.76,0,0,0,.39.62,1.61,1.61,0,0,0,.57.39,1.79,1.79,0,0,0,.68.13,1.89,1.89,0,0,0,.63-.1,1.64,1.64,0,0,0,.48-.28,1.4,1.4,0,0,0,.31-.38,1.82,1.82,0,0,0,.19-.43l1.67.56a3.1,3.1,0,0,1-1.07,1.63,3.49,3.49,0,0,1-1,.54,3.61,3.61,0,0,1-1.26.2,4,4,0,0,1-1.44-.28,3.56,3.56,0,0,1-2-2,4,4,0,0,1,0-3Zm-7.93,0a3.61,3.61,0,0,1,.77-1.17A3.47,3.47,0,0,1,15,19a3.64,3.64,0,0,1,1.46-.27,3.73,3.73,0,0,1,1.47.28A3.49,3.49,0,0,1,19.87,21v0a5.23,5.23,0,0,0-.23,1.46,5.1,5.1,0,0,0,.2,1.46v0a3.55,3.55,0,0,1-.77,1.17,3.36,3.36,0,0,1-1.17.77,4,4,0,0,1-2.92,0,3.49,3.49,0,0,1-1.16-.78,3.7,3.7,0,0,1-.77-1.18,4.17,4.17,0,0,1-.27-1.48A4,4,0,0,1,13.07,20.92ZM9.89,15.71h1.88V26H9.89Zm27.65,16H9.89V29.84H37.54Zm-7.06-8.37a.85.85,0,0,0,0,1.19.89.89,0,0,0,.67.24,2.25,2.25,0,0,0,.58-.07,1.31,1.31,0,0,0,.49-.27,1.46,1.46,0,0,0,.35-.5,2.06,2.06,0,0,0,.13-.78v-.31l-1.57.24A1.11,1.11,0,0,0,30.48,23.35Zm-15.26.56a1.6,1.6,0,0,0,.56.4,1.82,1.82,0,0,0,1.34,0,1.54,1.54,0,0,0,.57-.38,1.91,1.91,0,0,0,.39-.62,2.35,2.35,0,0,0,.16-.87,2.11,2.11,0,0,0-.15-.86A1.71,1.71,0,0,0,17.7,21a1.51,1.51,0,0,0-.56-.38,1.74,1.74,0,0,0-.67-.13,1.69,1.69,0,0,0-.67.11,1.56,1.56,0,0,0-.57.37,2.1,2.1,0,0,0-.4.63,2.57,2.57,0,0,0-.15.87,2.38,2.38,0,0,0,.15.87A1.91,1.91,0,0,0,15.22,23.91Zm15.88-.82a1.11,1.11,0,0,0-.62.26.85.85,0,0,0,0,1.19.89.89,0,0,0,.67.24,2.25,2.25,0,0,0,.58-.07,1.31,1.31,0,0,0,.49-.27,1.46,1.46,0,0,0,.35-.5,2.06,2.06,0,0,0,.13-.78v-.31Zm-13-1.51A1.71,1.71,0,0,0,17.7,21a1.51,1.51,0,0,0-.56-.38,1.74,1.74,0,0,0-.67-.13,1.69,1.69,0,0,0-.67.11,1.56,1.56,0,0,0-.57.37,2.1,2.1,0,0,0-.4.63,2.57,2.57,0,0,0-.15.87,2.38,2.38,0,0,0,.15.87,1.91,1.91,0,0,0,.39.62,1.6,1.6,0,0,0,.56.4,1.82,1.82,0,0,0,1.34,0,1.54,1.54,0,0,0,.57-.38,1.91,1.91,0,0,0,.39-.62,2.35,2.35,0,0,0,.16-.87A2.11,2.11,0,0,0,18.09,21.58Zm13,1.51a1.11,1.11,0,0,0-.62.26.85.85,0,0,0,0,1.19.89.89,0,0,0,.67.24,2.25,2.25,0,0,0,.58-.07,1.31,1.31,0,0,0,.49-.27,1.46,1.46,0,0,0,.35-.5,2.06,2.06,0,0,0,.13-.78v-.31Zm-13-1.51A1.71,1.71,0,0,0,17.7,21a1.51,1.51,0,0,0-.56-.38,1.74,1.74,0,0,0-.67-.13,1.69,1.69,0,0,0-.67.11,1.56,1.56,0,0,0-.57.37,2.1,2.1,0,0,0-.4.63,2.57,2.57,0,0,0-.15.87,2.38,2.38,0,0,0,.15.87,1.91,1.91,0,0,0,.39.62,1.6,1.6,0,0,0,.56.4,1.82,1.82,0,0,0,1.34,0,1.54,1.54,0,0,0,.57-.38,1.91,1.91,0,0,0,.39-.62,2.35,2.35,0,0,0,.16-.87A2.11,2.11,0,0,0,18.09,21.58Zm13,1.51a1.11,1.11,0,0,0-.62.26.85.85,0,0,0,0,1.19.89.89,0,0,0,.67.24,2.25,2.25,0,0,0,.58-.07,1.31,1.31,0,0,0,.49-.27,1.46,1.46,0,0,0,.35-.5,2.06,2.06,0,0,0,.13-.78v-.31Zm0,0a1.11,1.11,0,0,0-.62.26.85.85,0,0,0,0,1.19.89.89,0,0,0,.67.24,2.25,2.25,0,0,0,.58-.07,1.31,1.31,0,0,0,.49-.27,1.46,1.46,0,0,0,.35-.5,2.06,2.06,0,0,0,.13-.78v-.31Z"/></g></g></svg>